<svg xmlns="http://www.w3.org/2000/svg" viewBox="0 0 128 128">
<!-- SVG created with Arrow, by QuiverAI (https://quiver.ai) -->
  <linearGradient id="SVGID_1_" x1="64" x2="64" y1="1.41" y2="52" gradientUnits="userSpaceOnUse">
    <stop stop-color="#90B7FC" offset="0"/>
    <stop stop-color="#649BFA" offset="1"/>
  </linearGradient>
  <path d="m85.4 16.7c-2.3-8.5-10.8-15.3-21-15.3-9.7 0-18.4 6.3-21.6 15.4-9.7-1.5-21.2 5.5-21.2 18.4 0 10.2 8.4 18.4 17.4 18.4h50.1c8.6 0 17.2-7.5 17.2-18.3 0-9.1-7.6-19.1-20.9-18.6z" fill="url(#SVGID_1_)"/>
  <linearGradient id="SVGID_2_" x1="34.52" x2="30.32" y1="107.1" y2="122" gradientUnits="userSpaceOnUse">
    <stop stop-color="#383C41" offset=".2179"/>
    <stop stop-color="#4E5258" offset="1"/>
  </linearGradient>
  <path d="m30.8 107.5-3.6 12.6c-0.7 3.1 2.7 5.9 5.7 3.3l7.9-9.6-10-6.3z" fill="url(#SVGID_2_)"/>
  <linearGradient id="SVGID_3_" x1="87.2" x2="100.7" y1="114.8" y2="114.8" gradientUnits="userSpaceOnUse">
    <stop stop-color="#383C41" offset=".2179"/>
    <stop stop-color="#4E5258" offset="1"/>
  </linearGradient>
  <path d="m97.3 106.3 3.3 14c0.9 3.6-3.2 5.9-6 2.6l-7.4-9.3 10.1-7.3z" fill="url(#SVGID_3_)"/>
  <linearGradient id="SVGID_4_" x1="63.95" x2="63.95" y1="118.1" y2="126.9" gradientUnits="userSpaceOnUse">
    <stop stop-color="#383C41" offset=".2179"/>
    <stop stop-color="#4E5258" offset="1"/>
  </linearGradient>
  <path d="m58.6 117.9 2 6.5c1.1 3.1 5.7 3.6 6.7 0.3l2-6.7-10.7-0.1z" fill="url(#SVGID_4_)"/>
  <linearGradient id="SVGID_5_" x1="64" x2="64" y1="56.19" y2="118.3" gradientUnits="userSpaceOnUse">
    <stop stop-color="#4E5258" offset="0"/>
    <stop stop-color="#45484E" offset=".5813"/>
    <stop stop-color="#3C3E43" offset=".9066"/>
    <stop stop-color="#56585E" offset=".975"/>
    <stop stop-color="#5A5C62" offset="1"/>
  </linearGradient>
  <path d="m104.2 58.2h-80.4c-4.3 5.3-7.4 12.1-7.4 20.5 0 22.9 18.8 39.6 47.6 39.6 22.7 0 47.9-12.1 47.9-39.3 0-8.1-3.4-15.4-7.7-20.8z" fill="url(#SVGID_5_)"/>
  <linearGradient id="SVGID_6_" x1="63.95" x2="63.95" y1="47.38" y2="56.5" gradientUnits="userSpaceOnUse">
    <stop stop-color="#6A6D74" offset=".2179"/>
    <stop stop-color="#41454A" offset=".8034"/>
  </linearGradient>
  <path d="m105.9 47.4h-83.8c-2.3 0-4.3 1.9-4.3 4.3s1.9 4.8 4.3 4.8h83.9c2.3 0 4.3-1.9 4.3-4.3s-1.9-4.8-4.4-4.8z" fill="url(#SVGID_6_)"/>
  <linearGradient id="SVGID_7_" x1="64.05" x2="64.05" y1="56.4" y2="58.69" gradientUnits="userSpaceOnUse">
    <stop stop-color="#2D3036" offset=".2179"/>
    <stop stop-color="#3A3E44" offset="1"/>
  </linearGradient>
  <path d="m22.8 56.4 1 1.9h80.5l1-1.9z" fill="url(#SVGID_7_)"/>
</svg>