<svg xmlns="http://www.w3.org/2000/svg" viewBox="0 0 100 100"><style type="text/css">.cls-0{fill:#f2f2f2}.cls-1{fill:#e6e6e6}.cls-2{fill:#fff}.cls-4{fill:#e0e0e0}.cls-5{fill:#b2cff5}.cls-6{fill:url(#SVGID_1_)}.cls-7{fill:url(#SVGID_2_)}</style><path d="m77.3 2.5h-54.6c-10.9 0-18.5 6.8-18.5 18.4v58c0 11.8 7.6 18.6 18.5 18.6h54.6c10.8 0 18.5-6.8 18.5-18.6v-58c0-11.6-7.7-18.4-18.5-18.4z" class="cls-0"/><path d="m77.3 2.5h-54.6c-10.9 0-18.5 6.8-18.5 18.4v58.1c0 11.7 7.6 18.5 18.5 18.5h54.6c10.8 0 18.5-6.8 18.5-18.5v-58.1c0-11.6-7.6-18.4-18.5-18.4zm18.1 76.5c0 11.4-7.3 18.1-18.1 18.1h-54.6c-10.8 0-18.1-6.7-18.1-18.1v-58.1c0-11.3 7.3-18 18.1-18h54.6c10.8 0 18.1 6.7 18.1 18v58.1z" class="cls-1"/><path d="m71.4 36.3c0.4-9.2-6.9-19.4-18.5-19.4-7.7 0-15.4 4.8-17.8 13.8-7.5-2.3-17.3 3.3-17.4 14.2-3 1.7-6.2 6.2-6.2 11.9 0 7.6 5.3 16.1 15.2 16.2h47.5c8 0 13.8-7.7 13.8-17 0-7.6-5.4-19.3-16.6-19.7z" class="cls-2"/><path d="m71.5 36.3c0.5-9.3-6.4-19.6-18.5-19.6-7.1 0-15.1 4.2-17.9 13.8-7.6-2.2-17.3 3.2-17.5 14.4-2.5 1.4-6.3 5.8-6.3 11.9 0 7.7 5.3 16.3 15.3 16.5h47.6c8.2 0 14-7.9 14-17.3 0-7.4-5.2-19.3-16.7-19.7zm2.7 36.6h-47.6c-9.8-0.1-15-8.5-15-16.1 0-5.7 3.5-10.2 6.3-11.8 0.1-10.9 9.6-16.5 17.2-14.1 2.4-9 10.1-14 17.9-14 11.4 0 18.8 10 18.4 19.4 11.2 0.4 16.4 10.8 16.4 19.7 0 9.2-5.7 16.9-13.6 16.9z" class="cls-4"/><path d="m75.1 53.9-1.7-1.6v-2.6c0-1.3-1.4-2.7-2.6-2.7h-25.2l-1.4-1.8c-0.5-0.6-1.8-1.1-2.4-1.1h-12.1c-1.4 0-3.1 1.4-3.1 2.9v32.6c0 1.3 1.4 2.9 3 2.9h42.3c1.5 0 3.2-1.4 3.2-3v-25.6z" class="cls-4"/><path d="m73.3 50c0-1.3-1.2-2.6-2.5-2.6h-25.3l2.9 3.9c0.5 0.7 1.6 1.2 2.4 1.2h22.5v-2.5z" class="cls-5"/><linearGradient id="SVGID_1_" x1="50.85" x2="50.85" y1="81.69" y2="44.19" gradientUnits="userSpaceOnUse"><stop offset="0" stop-color="#3E82E7"/><stop offset="1" stop-color="#5EA0F1"/></linearGradient><path d="m71.9 52.4h-21.3c-0.7 0-1.7-0.5-2.1-1.1l-4.3-5.9c-0.5-0.7-1.7-1.2-2.5-1.2h-12c-1.4 0-3 1.4-3 3v31.7c0 1.4 1.4 2.8 2.9 2.8h42.2c1.6 0 3.1-1.4 3.1-3v-23.2c0.1-1.3-1.4-3.1-3-3.1z" class="cls-6"/><linearGradient id="SVGID_2_" x1="50.8" x2="50.8" y1="81.36" y2="81.11" gradientUnits="userSpaceOnUse"><stop offset="0" stop-color="#3D7FDA"/><stop offset="1" stop-color="#3E82E7"/></linearGradient><path d="m29.7 81.2c-0.1 0-0.1 0.1 0 0l42.3 0.1s0-0.1-0.1-0.1h-42.2z" class="cls-7"/></svg>